# xmcd
#
# Track frame offsets:
#	150
#	19119
#	38601
#	54376
#	70314
#	92023
#	111389
#	130075
#	144669
#	163643
#
# Disc length: 2422 seconds
# Revision: 0
# Processed by: cddbd v1.5.2PL0 Copyright (c) Steve Scherf et al.
# Submitted via: dBpowerAMP V12.0
#
DISCID=8409740a
DTITLE=Steven Wilkins - Waiting
DYEAR=2018
DGENRE=Blues
TTITLE0=Last Chance
TTITLE1=Waiting
TTITLE2=First Time Feeling
TTITLE3=Chardonnay
TTITLE4=Finding Out About You
TTITLE5=Ain't No Sunshine
TTITLE6=Dark Nights
TTITLE7=Mother Nature Crying
TTITLE8=Weight Of The World
TTITLE9=Been Down That Road Before
EXTD=
EXTT0=
EXTT1=
EXTT2=
EXTT3=
EXTT4=
EXTT5=
EXTT6=
EXTT7=
EXTT8=
EXTT9=
PLAYORDER=
